<?xml version="1.0" standalone="no"?>
<!DOCTYPE svg PUBLIC "-//W3C//DTD SVG 1.1//EN" "http://www.w3.org/Graphics/SVG/1.1/DTD/svg11.dtd" >
<svg xmlns="http://www.w3.org/2000/svg">
<metadata>Generated by IcoMoon</metadata>
<defs>
<font id="icomoon" horiz-adv-x="1024">
<font-face units-per-em="1024" ascent="896" descent="-128" />
<missing-glyph horiz-adv-x="1024" />
<glyph unicode="&#x20;" d="" />
<glyph unicode="&#x78;" glyph-name="x" d="M293 546.5q-27-1-53-1h-83q-18 0-36.5-6t-32.5-18.5-23-32-9-45.5v-76h912v41q0 16-0.5 30t-0.5 18q0 13-5 29t-17 29.5-31.5 22.5-49.5 9h-133v-97h-438v97zM967 313.5v-52q0-23 0.5-52t0.5-58-10.5-47.5-26-30-33-16-31.5-4.5q-14-1-29.5-0.5t-29.5 0.5h-32l-45 128h-439l-44-128h-63q-20 0-45 1-25 0-41 9.5t-25.5 23-13.5 29.5-4 30v167h911zM175 250.5q-12 0-21-8.5t-9-21.5 9-21.5 21-8.5q13 0 22 8.5t9 21.5-9 21.5-22 8.5zM328 126.5q-8-26-14-48-5-19-10.5-37t-7.5-25-3-15 1-14.5 9.5-10.5 21.5-4h365q23 0 34 12t2 38q-5 13-9.5 30.5t-9.5 34.5q-5 19-11 39h-368zM348 501.5v228q0 11 2.5 23t10 21.5 20.5 15.5 34 6h188q31 0 51.5-14.5t20.5-52.5v-227h-327z" />
<glyph unicode="&#xe600;" glyph-name="hrgongzuotai" d="M938.252 895.508h-852.505c-47.084 0-85.251-38.176-85.251-85.26v-682.002c0-47.084 38.167-85.26 85.251-85.26h255.746v-85.243h-85.251v-85.251h511.508v85.251h-85.251v85.243h255.754c47.093 0 85.251 38.176 85.251 85.26v682.002c-0.001 47.084-38.16 85.26-85.252 85.26zM597.255 724.997h255.745v-255.745h-85.251v85.251h-85.251v-85.251h-85.243v255.745zM170.99 724.997h85.251v-85.243h85.251v85.243h85.251v-255.745h-85.25v85.251h-85.251v-85.251h-85.251v255.745zM938.252 213.498h-852.505v85.251h852.505v-85.251z" />
<glyph unicode="&#xe601;" glyph-name="xiantiao-xiexian" horiz-adv-x="1025" d="M886.187 805.44l45.12-54.72-797.76-789.12-54.72 54.72 797.76 789.12h9.6z" />
<glyph unicode="&#xe602;" glyph-name="zhizhen1" d="M853.024 334.481q-46.016 0.992-96-3.008-43.008-3.008-97.504-10.016t-111.488-22.016l147.008-243.008q10.016-19.008 11.488-39.008t-4.512-38.496-18.496-34.016-31.488-25.504q-18.016-10.016-38.016-11.488t-38.496 4.512-34.016 18.496-25.504 31.488l-123.008 272.992q-50.016-28.992-90.496-62.016t-69.504-62.016q-34.016-32.992-60-67.008l-2.016 816z" />
<glyph unicode="&#xe605;" glyph-name="xiejiantou" d="M845.871 776.903l53.338-53.386-780.1-787.387-53.338 53.386zM958.23 502.855l-329.015 329.015h329.015z" />
<glyph unicode="&#xe606;" glyph-name="hebing" horiz-adv-x="1025" d="M51.2 768h204.8c10.24-15.36 153.6-256 153.6-256l-51.2-102.4-153.6 256h-153.6c-25.6 0-51.2 25.6-51.2 51.2s25.6 51.2 51.2 51.2zM1013.76 384l-194.56-128c-15.36-15.36-35.84-15.36-51.2 0v102.4h-204.8l-204.8-358.4h-307.2c-25.6 0-51.2 25.6-51.2 51.2s25.6 51.2 51.2 51.2h256l204.8 358.4h256v102.4c15.36 15.36 35.84 15.36 51.2 0l194.56-133.12c15.36-15.36 15.36-35.84 0-46.080z" />
<glyph unicode="&#xe607;" glyph-name="refresh" d="M1003.474 443.627l-69.211-0.007c-30.022 219.39-218.175 388.408-445.815 388.408-86.893 0-168.017-24.645-236.806-67.298-14.025-7.616-23.547-22.479-23.547-39.558 0-24.845 20.137-44.981 44.981-44.981 9.782 0 18.833 3.133 26.215 8.443 54.951 33.957 119.703 53.576 189.048 53.576 177.932 0 325.702-129.015 354.927-298.594l-77.238-0.007c-9.293 0-16.831-7.538-16.831-16.837 0-3.307 0.96-6.39 2.612-8.992l118.477-205.166c2.945-4.912 8.317-8.2 14.452-8.206 6.017 0.007 11.291 3.162 14.272 7.911l0.067-0.007 118.43 205.179c1.769 2.663 2.801 5.859 2.801 9.306 0.004 9.293-7.534 16.83-16.835 16.83v0zM738.126 99.052c-11.18 0-21.334-4.357-28.881-11.443-0.045 0.045-0.074 0.078-0.074 0.078-56.439-42.391-126.585-67.516-202.612-67.516-186.493 0-337.673 151.18-337.673 337.678 0 2.921 0.052 5.828 0.125 8.731l73.062-0.006c8.718 0 15.784 7.049 15.784 15.761 0 3.224-0.968 6.228-2.624 8.723l-111.028 192.355-0.062-0.006c-2.795 4.452-7.74 7.416-13.381 7.416-5.753-0.006-10.794-3.083-13.548-7.695l-0.011 0.006-111.067-192.348c-1.545-2.439-2.445-5.33-2.445-8.431 0-8.718 7.066-15.767 15.779-15.767l65.422-0.006c-0.057-2.902-0.101-5.81-0.101-8.731 0-233.003 188.874-421.879 421.871-421.879 96.042 0 184.575 32.112 255.486 86.159 1.092 0.757 2.149 1.567 3.163 2.42 0.294 0.233 0.594 0.454 0.894 0.685 0.006 0.011 0 0.033-0.018 0.081 8.678 7.728 14.144 18.978 14.144 31.517 0.006 23.314-18.89 42.214-42.204 42.214v0z" />
<glyph unicode="&#xe609;" glyph-name="tingzhi-copy" d="M932 71.040c0-59.1-48-107.040-107.16-107.040h-625.68c-59.16 0-107.16 47.94-107.16 107.040v625.92c0 59.1 48 107.040 107.16 107.040h625.68c59.16 0 107.16-47.94 107.16-107.040v-625.92z" />
<glyph unicode="&#xe60c;" glyph-name="fenzhi" d="M536.492 648.038h234.756v-100.845c14.208-14.21 33.157-14.21 47.367 0l179.995 118.419c14.21 9.473 14.21 28.42 0 42.63l-179.995 123.155c-14.21 14.21-33.159 14.21-47.367 0v-88.623h-282.124l-189.467-331.57h-189.469v-0.324h-48.088c-23.683 0-47.367-23.684-47.367-47.368s23.684-47.367 47.367-47.367h284.204l-0.162 0.324h0.883l189.468 331.569zM818.613 220.805c-14.21 14.21-33.159 14.21-47.367 0v-93.804h-140.022l-142.103 236.835-47.367-94.734s132.628-222.626 142.102-236.835h187.388v-95.664c14.208-14.21 33.157-14.21 47.367 0l179.995 118.419c14.21 9.472 14.21 28.42 0 42.63l-179.994 123.154z" />
<glyph unicode="&#xe60d;" glyph-name="icon-test" d="M544.992-2.734v278.084h73.056v212.098h-73.056v351.139h-490.181v-68.342h421.837v-282.796h-68.342v-212.098h68.342v-346.425h490.181v68.342z" />
<glyph unicode="&#xe60e;" glyph-name="icon-test1" d="M618.048 394.237v68.342h-209.739v-68.342h-282.796v421.837h-70.7v-490.181h353.495v-73.056h209.739v73.056h280.439v-421.837h68.342v490.181z" />
<glyph unicode="&#xe611;" glyph-name="huizhang" d="M623.352 863.584h-399.141c-21.020 0-38.329-17.235-38.329-38.48v-152.979c0-21.207 13.995-48.558 31.248-60.996l172.837-124.543c6.294-4.533 12.177-6.444 17.085-6.070 2.21-0.374 4.496-0.599 6.819-0.599h191.61c3.072 0 6.070 0.374 8.937 1.049 5.377-1.461 12.195 0.299 19.615 5.619l172.837 124.543c17.253 12.439 31.248 39.79 31.248 60.996v152.979c0 21.245-17.311 38.48-38.33 38.48h-176.435zM569.549 796.366c0 15.924 12.777 28.85 28.774 28.85 15.886 0 28.774-12.777 28.774-28.85v-249.197c0-15.962-12.777-28.887-28.774-28.887-15.886 0-28.774 12.814-28.774 28.887v249.197zM396.898 796.366c0 15.924 12.777 28.85 28.774 28.85 15.886 0 28.774-12.777 28.774-28.85v-249.197c0-15.962-12.777-28.887-28.774-28.887-15.887 0-28.774 12.814-28.774 28.887v249.197zM511.998-95.584c148.334 0 268.567 120.231 268.567 268.566 0 148.333-120.233 268.565-268.567 268.565s-268.566-120.234-268.566-268.565c0-148.335 120.234-268.566 268.566-268.566z" />
<glyph unicode="&#xe61a;" glyph-name="close" d="M908.395-12.344c-31.149-31.15-82.136-31.15-113.203 0l-283.156 283.188-283.118-283.188c-31.15-31.15-82.061-31.15-113.211 0s-31.15 82.136 0 113.287l283.138 283.104-283.14 283.17c-31.226 30.991-31.226 81.977 0 113.127 31.15 31.15 82.061 31.15 113.211 0l283.118-283.121 283.157 283.121c31.067 31.15 82.054 31.15 113.203 0 31.067-31.15 31.067-82.136-0.083-113.127l-283.102-283.17 283.101-283.104c31.15-31.151 31.235-82.136 0.083-113.287z" />
<glyph unicode="&#xe61b;" glyph-name="liaotian" d="M372.921 388.981c0.003-0.216 0.005-0.471 0.005-0.726 0-30.192-24.24-54.723-54.321-55.193l-0.044-0.001c-30.125 0.47-54.365 25.001-54.365 55.194 0 0.255 0.002 0.51 0.005 0.765v-0.039c-0.004 0.234-0.006 0.51-0.006 0.786 0 30.193 24.24 54.724 54.321 55.193l0.044 0.001c30 0 54.36-25.080 54.36-55.98zM786.32 388.981c0.003-0.216 0.005-0.471 0.005-0.726 0-30.192-24.24-54.723-54.321-55.193l-0.044-0.001c-30.125 0.47-54.365 25.001-54.365 55.194 0 0.255 0.002 0.51 0.005 0.765v-0.039c-0.004 0.234-0.006 0.51-0.006 0.786 0 30.193 24.24 54.724 54.321 55.193l0.044 0.001c30.060 0 54.36-25.080 54.36-55.98zM579.080 388.981c0.003-0.216 0.005-0.471 0.005-0.726 0-30.192-24.24-54.723-54.321-55.193l-0.044-0.001c-30.125 0.47-54.365 25.001-54.365 55.194 0 0.255 0.002 0.51 0.005 0.765v-0.039c-0.004 0.234-0.006 0.51-0.006 0.786 0 30.193 24.24 54.724 54.321 55.193l0.044 0.001c30 0 54.36-25.080 54.36-55.98zM512-65.998c265.079 0 479.999 201.48 479.999 449.999s-214.92 449.999-479.999 449.999-479.999-201.48-479.999-449.999c0-93.18 30.24-179.76 81.96-251.579l-44.28-148.62c-8.52-28.44 8.22-46.32 37.2-39.96l184.44 40.38c64.081-31.685 139.522-50.222 219.292-50.222 0.488 0 0.975 0.001 1.462 0.002h-0.075z" />
<glyph unicode="&#xe622;" glyph-name="business" d="M42.667-21.333c0-36.267 27.733-64 64-64h810.667c36.267 0 64 27.733 64 64v448h-938.667v-448zM448 341.333h128c12.8 0 21.333-8.533 21.333-21.333s-8.533-21.333-21.333-21.333h-128c-12.8 0-21.333 8.533-21.333 21.333s8.533 21.333 21.333 21.333zM917.333 640h-810.667c-36.267 0-64-27.733-64-64v-106.667h938.667v106.667c0 36.267-27.733 64-64 64zM320 682.667c12.8 0 21.333 8.533 21.333 21.333v72.533c0 19.2 17.067 34.133 36.267 34.133h268.8c19.2 0 36.267-14.933 36.267-34.133v-72.533c0-12.8 8.533-21.333 21.333-21.333s21.333 8.533 21.333 21.333v72.533c0 42.667-36.267 76.8-78.933 76.8h-268.8c-42.667 0-78.933-34.133-78.933-76.8v-72.533c0-12.8 8.533-21.333 21.333-21.333z" />
<glyph unicode="&#xe62b;" glyph-name="wangluo" d="M902 144v296.1h-360v183.9h90v240h-240v-240h90v-183.9h-360v-296.1h-90v-240h240v240h-90v236.1h300v-236.1h-90v-240h240v240h-90v236.1h300v-236.1h-90v-240h240v240z" />
<glyph unicode="&#xe633;" glyph-name="dingshi" d="M511.95 750.868c-222.942 0-405.304-182.467-405.304-405.309 0-222.837 182.362-405.5 405.304-405.5 222.947 0 405.405 182.463 405.405 405.409 0 222.933-182.458 405.399-405.405 405.399zM682.248 175.161l-210.888 129.619v243.286h60.824v-210.787l182.362-109.475-32.299-52.643zM867.877 635.969l-144.433 144.338 47.643 47.633 144.329-144.333-47.537-47.638zM106.65 683.607l144.329 144.333 47.638-47.633-144.333-144.338-47.633 47.638z" />
<glyph unicode="&#xe63d;" glyph-name="baocun" d="M796.41 830.351h-42.913v-378.828h-446.369v378.828h-241.498v-892.703h892.741v714.726l-161.96 177.976zM855.357 5.174h-652.383v378.823h652.382v-378.823h0.001zM249.896 338.222h551.669v-70.961h-551.669v70.961zM249.896 224.917h551.669v-72.104h-551.669v72.104zM249.896 113.898h551.669v-70.953h-551.669v70.953zM579.525 829.205h103.007v-303.285h-103.007v303.285zM579.525 829.205" />
<glyph unicode="&#xe63f;" glyph-name="todo" d="M84.213 828.992h232.056v-232.057h-232.056v232.057zM404.515 740.516h553.673v-55.113h-553.673v55.113zM404.515 423.612h553.673v-55.113h-553.673v55.113zM84.213 172.269h232.056v-232.057h-232.056v232.057zM404.515 83.797h556.741v-55.113h-556.741v55.113zM176.936 370.975l-75.299 65.024-36.709-42.508 116.017-100.189 14.94 17.29 161.342 160.563-39.615 39.806-140.676-139.985z" />
<glyph unicode="&#xe643;" glyph-name="webtubiaoku08" d="M550.604 828.071c-14.735 6.869-32.056 4.58-44.501-5.775l-240.227-199.956-191.644 0.796c-11 0-21.604-4.38-29.419-12.145-7.864-7.816-12.344-18.417-12.344-29.568l-0.847-394.637c0-11.151 4.38-21.803 12.145-29.668 7.816-7.864 18.468-12.296 29.617-12.296h193.735l239.032-199.16c7.616-6.321 17.224-9.656 26.78-9.656 5.973 0 12.047 1.344 17.672 3.983 14.735 6.82 24.043 21.553 24.043 37.781v812.471c0 16.228-9.359 30.912-24.043 37.831v0 0 0zM712.53 619.205c-20.559 9.756-45.048 0.847-55.104-19.612-10.005-20.559-1.344-45.447 19.064-55.751 2.639-1.393 65.259-33.899 65.259-126.535 0-98.908-58.539-192.192-60.48-193.287-20.657-10.353-29.020-35.492-18.716-56.049 7.368-14.735 22.101-23.147 37.483-23.147 6.223 0 12.644 1.393 18.568 4.38 4.38 2.24 106.673 115.684 106.673 268.103 0.049 147.143-108.167 199.708-112.747 201.899v0 0 0zM842.549 741.857c-19.264 12.395-44.8 6.769-57.393-12.495-12.544-19.215-7.019-45.099 12.145-57.742 4.48-2.987 111.502-75.861 111.502-257.351 0-181.888-102.692-315.441-106.724-318.228-19.264-12.843-24.392-38.677-11.599-57.941 8.064-12.047 21.304-18.568 34.795-18.568 7.915 0 16.028 2.289 23.147 7.019 5.873 3.932 143.956 159.089 143.956 387.718 0 229.076-143.659 323.704-149.831 327.587v0 0 0z" />
<glyph unicode="&#xe649;" glyph-name="caidan" d="M307.013 623.118c0-18.838-15.272-34.11-34.11-34.11h-136.442c-18.838 0-34.11 15.272-34.11 34.11v136.442c0 18.838 15.272 34.11 34.11 34.11h136.44c18.839 0 34.111-15.272 34.111-34.11v-136.442zM614.005 623.118c0-18.838-15.272-34.11-34.11-34.11h-136.442c-18.838 0-34.11 15.272-34.11 34.11v136.442c0 18.838 15.272 34.11 34.11 34.11h136.44c18.839 0 34.111-15.272 34.111-34.11v-136.442zM920.997 623.118c0-18.838-15.272-34.11-34.11-34.11h-136.442c-18.838 0-34.11 15.272-34.11 34.11v136.442c0 18.838 15.272 34.11 34.11 34.11h136.44c18.839 0 34.111-15.272 34.111-34.11v-136.442zM307.013 316.126c0-18.838-15.272-34.11-34.11-34.11h-136.442c-18.838 0-34.11 15.272-34.11 34.11v136.442c0 18.839 15.272 34.11 34.11 34.11h136.44c18.839 0 34.111-15.272 34.111-34.11v-136.442zM614.005 316.126c0-18.838-15.272-34.11-34.11-34.11h-136.442c-18.838 0-34.11 15.272-34.11 34.11v136.442c0 18.839 15.272 34.11 34.11 34.11h136.44c18.839 0 34.111-15.272 34.111-34.11v-136.442zM920.997 316.126c0-18.838-15.272-34.11-34.11-34.11h-136.442c-18.838 0-34.11 15.272-34.11 34.11v136.442c0 18.839 15.272 34.11 34.11 34.11h136.44c18.839 0 34.111-15.272 34.111-34.11v-136.442zM307.013 9.134c0-18.838-15.272-34.11-34.11-34.11h-136.442c-18.838 0-34.11 15.272-34.11 34.11v136.442c0 18.838 15.272 34.11 34.11 34.11h136.44c18.839 0 34.111-15.272 34.111-34.11v-136.442zM614.005 9.134c0-18.838-15.272-34.11-34.11-34.11h-136.442c-18.838 0-34.11 15.272-34.11 34.11v136.442c0 18.838 15.272 34.11 34.11 34.11h136.44c18.839 0 34.111-15.272 34.111-34.11v-136.442zM920.997 9.134c0-18.838-15.272-34.11-34.11-34.11h-136.442c-18.838 0-34.11 15.272-34.11 34.11v136.442c0 18.838 15.272 34.11 34.11 34.11h136.44c18.839 0 34.111-15.272 34.111-34.11v-136.442z" />
<glyph unicode="&#xe659;" glyph-name="wenjiantianjia" d="M143.104 51.136v515.2h181.248v172.928h353.28c12.096 0 21.888-10.688 21.888-23.744v-272.64h99.648v359.296c-0.064 16.512-13.44 29.824-29.824 29.824h-482.624l-243.2-228.416v-637.696c0-16.512 13.312-29.888 29.76-29.888h535.616v91.264h-443.84c-12.096 0-21.952 10.752-21.952 23.872zM980.48 238.848h-153.728v145.152h-156.096v-145.152h-153.6v-152.32h153.6v-150.528h156.096v150.528h153.728z" />
<glyph unicode="&#xe663;" glyph-name="qukuai" d="M128.456 766.443h767.088v-156.183h-767.088v156.183zM128.456 510.454h171.367v-508.897h-171.367v508.897zM382.952 510.454h512.591v-508.897h-512.591v508.897z" />
<glyph unicode="&#xe66c;" glyph-name="chajian1" d="M748.703 647.68c0 0-187.109-9.005-253.513-11.988-41.041-1.874-63.363 32.95-27.159 68.941 27.821 27.585 37.951 35.374 33.201 86.885-5.446 58.987-64.849 78.16-113.605 77.612-50.999-0.603-106.825-27.415-123.267-76.050-10.814-31.894-10.499-64.048 17.472-84.527 15.261-11.19 49.038-27.694 11.15-57.887-20.446-16.308-226.318 3.037-226.318 3.037s-9.070-175.646-2.615-225.681c3.69-28.751 39.511-42.205 62.983-11.107 36.206 47.923 136.307 16.655 141.372-77.426 5.325-98.703-100.665-113.915-123.29-75.415-21.118 35.98-81.445 44.93-84.060-0.958-4.047-71.451 29.62-298.799 29.62-298.799s135.318-31.766 196.307-21.997c28.332 4.588 41.338 53.169 15.077 75.984-24.156 20.962-29.221 133.023 96.846 120.151 98.637-10.073 82.162-95.579 57.063-111.199-24.143-14.973-22.994-61.635 27.182-74.895 68.656-18.193 276.918 26.67 276.918 26.67s-27.517 167.74-18.308 222.096c9.838 58.199 77.021 23.083 85.414 11.967 54.331-71.924 167.001-32.608 167.001 88.124 0 175.828-160.895 145.936-176.036 103.699-16.735-46.511-72.117-34.589-78.135-6.011-14.145 66.754 8.7 248.777 8.7 248.777z" />
<glyph unicode="&#xe671;" glyph-name="dayin" d="M318.7-60h381.9c35.1 0 62.4 29.5 62.4 64.7v190.3h-507v-190.3c0-35.2 27.6-64.7 62.7-64.7zM700.6 831h-381.9c-35.1 0-62.7-27.4-62.7-62.6v-189.4h507v189.4c0 35.2-27.3 62.6-62.4 62.6zM827 579v-65h-635v65h-64.2c-35.2 0-62.8-30-62.8-65.2v-445.5c0-35.2 27.6-64.3 62.8-64.3h64.2v255h635v-255h64.5c35.1 0 64.5 29.1 64.5 64.3v445.5c0 35.2-29.3 65.2-64.5 65.2h-64.5zM827 385h-190v65h190v-65z" />
<glyph unicode="&#xe672;" glyph-name="zhongzuo" d="M96.768 325.272q0 77.824 29.184 147.456t80.896 123.392 121.344 87.552 149.504 41.984q10.24 3.072 21.504 3.072h162.816v81.92q1.024 20.48 16.384 30.72t39.936-7.168q7.168-5.12 27.648-20.992t45.568-35.84 50.688-40.448 44.032-35.84q16.384-13.312 28.672-26.624t12.288-25.6q0-14.336-10.752-24.064t-26.112-22.016l-51.2-38.912q-26.624-19.456-50.688-36.864t-42.496-30.208-26.624-16.896q-15.36-9.216-26.112-11.776t-17.408 0.512-10.24 10.24-3.584 15.36v81.92h-167.936q-50.176-5.12-93.184-26.112t-75.264-54.784-50.688-76.8-18.432-92.16q0-52.224 20.48-97.792t56.32-79.36 83.968-53.76 102.4-19.968l158.72 1.024q16.384 0 33.28-6.144t29.696-16.384 20.992-24.064 8.192-30.208q0-15.36-8.192-29.696t-22.016-24.576-30.72-16.384-33.28-6.144h-186.368q-4.096 0-9.216 1.024-80.896 7.168-151.040 41.472t-121.856 88.064-81.408 123.392-29.696 148.48z" />
<glyph unicode="&#xe673;" glyph-name="chexiao" d="M927.744 325.784q0-78.848-29.696-148.48t-81.408-123.392-121.856-88.064-151.040-41.472q-5.12-1.024-9.216-1.536t-9.216-0.512h-177.152q-17.408 0-34.304 6.144t-30.208 16.896-22.016 25.088-8.704 29.696 8.192 29.696 21.504 24.576 29.696 16.384 33.792 6.144l158.72-1.024q54.272 0 102.4 19.968t83.968 53.76 56.32 79.36 20.48 97.792q0 49.152-18.432 92.16t-50.688 76.8-75.264 54.784-93.184 26.112q-2.048 0-2.56-0.512t-2.56-0.512h-162.816v-80.896q0-17.408-13.824-25.6t-44.544 10.24q-8.192 5.12-26.112 17.92t-41.984 30.208-50.688 36.864l-51.2 38.912q-15.36 12.288-26.624 22.016t-11.264 24.064q0 12.288 12.8 25.6t29.184 26.624q18.432 15.36 44.032 35.84t50.688 39.936 45.056 35.328 28.16 22.016q24.576 17.408 39.936 7.168t16.384-30.72v-81.92h162.816q5.12 0 10.752-1.024t10.752-2.048q79.872-8.192 149.504-41.984t121.344-87.552 80.896-123.392 29.184-147.456z" />
<glyph unicode="&#xe674;" glyph-name="msnui-close-fat" d="M675.019 702.566l-485.38-485.38-111.358 111.376 485.38 485.38 111.376-111.358zM562.743 813.027c30.754 30.754 80.612 30.754 111.358 0s30.754-80.612 0-111.358M190.555 218.097c-30.754-30.734-80.62-30.734-111.376 0-30.734 30.754-30.734 80.612 0 111.358M562.394 218.44l-485.38 485.38 111.376 111.358 485.38-485.38-111.376-111.358zM672.838 330.731c30.754-30.754 30.754-80.612 0-111.358-30.754-30.734-80.612-30.734-111.376 0M77.91 702.918c-30.754 30.754-30.754 80.62-0.001 111.358 30.754 30.754 80.612 30.754 111.358 0z" />
<glyph unicode="&#xe675;" glyph-name="xiaoxuxian" d="M949.428 821.428c17.256-17.256 17.257-45.233 0-62.49l-54.679-54.679c-17.256-17.256-45.23-17.26-62.49 0-17.256 17.256-17.257 45.233 0 62.49l54.679 54.679c17.256 17.256 45.23 17.26 62.49 0zM570.584 442.584c17.256-17.256 17.257-45.233 0-62.49l-54.679-54.679c-17.256-17.256-45.23-17.26-62.49 0-17.256 17.256-17.257 45.233 0 62.49l54.679 54.679c17.256 17.256 45.23 17.26 62.49 0zM760.006 632.006c17.256-17.256 17.257-45.233 0-62.49l-54.679-54.679c-17.256-17.256-45.23-17.26-62.49 0-17.256 17.256-17.257 45.233 0 62.49l54.679 54.679c17.256 17.256 45.23 17.26 62.49 0zM191.74 63.74c17.256-17.256 17.257-45.233 0-62.49l-54.679-54.679c-17.256-17.256-45.23-17.26-62.49 0-17.256 17.256-17.257 45.233 0 62.49l54.679 54.679c17.256 17.256 45.23 17.26 62.49 0zM381.162 253.162c17.256-17.256 17.257-45.233 0-62.49l-54.679-54.679c-17.256-17.256-45.23-17.26-62.49 0-17.256 17.256-17.257 45.233 0 62.49l54.679 54.679c17.256 17.256 45.23 17.26 62.49 0z" />
<glyph unicode="&#xe678;" glyph-name="peizhi" d="M989.283 250.812c1.379-8.216 1.079-18.050-1.079-29.624-1.979-11.574-5.397-23.387-10.195-35.261-4.797-11.934-10.554-22.668-17.331-32.203-6.776-9.595-14.392-16.371-22.488-20.449-8.216-4.138-15.352-6.177-21.528-6.177-6.117 0-12.893 1.319-20.389 4.078-6.776 2.039-15.352 3.898-25.546 5.637-10.314 1.679-20.629 1.979-31.243 1.019-10.554-1.019-21.109-3.238-31.603-6.596s-19.669-9.235-27.045-17.391c-16.371-17.031-26.026-36.46-28.725-58.289s0.36-42.577 9.235-62.366c6.776-13.673 5.757-27.225-3.058-40.898-4.078-5.457-10.674-11.094-19.43-16.851-8.875-5.817-18.65-11.094-29.144-15.891s-21.648-8.515-33.282-11.274c-11.574-2.639-21.768-4.018-30.703-4.018-6.117 0-11.814 2.399-17.331 7.136-5.397 4.797-9.115 9.955-11.274 15.352h-1.019c-7.496 21.169-20.269 39.339-38.319 54.691s-38.979 23.028-62.906 23.028c-23.148 0-44.136-7.676-62.846-23.028-18.77-15.352-31.903-33.222-39.399-53.671-3.418-8.216-8.515-14.152-15.352-17.93-6.716-3.718-14.212-5.577-22.428-5.577-9.535 0-20.269 1.679-32.203 5.157-11.934 3.418-23.867 7.676-35.801 12.773s-22.668 11.094-32.203 17.93c-9.535 6.776-16.671 13.613-21.468 20.389-3.418 4.797-5.277 10.434-5.637 16.851-0.36 6.477 2.219 15.532 7.676 27.105 7.496 15.712 10.374 33.582 8.695 53.731-1.679 20.089-10.374 38.679-26.086 55.71-9.535 10.254-21.109 16.851-34.721 19.909-13.673 3.118-26.566 4.258-38.859 3.598-14.332-0.66-28.964-3.418-43.956-8.216-9.535-2.699-19.070-1.979-28.665 2.099-7.496 2.699-14.452 8.995-20.989 18.83-6.477 9.895-12.233 20.869-17.391 32.742-4.603 10.411-8.648 22.711-11.498 35.461l-0.256 1.36c-2.699 12.593-3.418 22.968-2.039 31.183 2.039 14.992 8.815 24.527 20.449 28.605 20.449 8.216 38.799 21.648 55.17 40.418s24.527 39.699 24.527 62.906c0 23.807-8.156 44.616-24.527 62.366s-34.781 30.644-55.17 38.859c-5.997 1.919-11.094 6.836-15.172 14.692s-6.177 15.891-6.177 23.987c0 8.875 1.379 18.77 4.078 29.684s6.297 21.468 10.734 31.723c4.438 10.195 9.595 19.549 15.352 28.125 5.817 8.455 12.113 14.812 18.89 18.89 5.457 3.418 10.794 4.737 15.891 4.078s10.734-2.039 16.851-4.078c20.449-8.216 41.738-10.734 63.926-7.676 22.128 3.058 41.738 12.773 58.768 29.084 8.156 8.216 14.092 18.29 17.87 30.164 3.718 11.994 6.177 23.747 7.136 35.321 1.079 11.574 1.079 22.128 0 31.663-0.959 9.595-1.859 16.371-2.519 20.449-1.379 4.078-2.579 8.875-3.598 14.332s-0.48 10.254 1.499 14.332c4.078 9.535 11.394 17.87 22.008 25.007 10.554 7.136 21.948 13.133 34.242 17.93 12.293 4.737 24.227 8.276 35.801 10.734 11.574 2.399 20.809 3.598 27.585 3.598 8.815 0 15.831-2.878 20.989-8.695 5.097-5.817 8.635-11.814 10.674-17.93 7.496-18.41 19.789-34.541 36.82-48.574 17.031-13.972 37.18-20.989 60.328-20.989 23.867 0 44.976 6.656 63.386 19.969s31.363 30.164 38.859 50.613c2.699 5.457 7.016 11.094 12.773 16.851 5.757 5.817 11.694 8.695 17.93 8.695 9.475 0 19.909-1.319 31.183-4.078 11.274-2.699 22.368-6.477 33.162-11.274 11.553-5.019 21.514-11.191 30.432-18.578l-0.208 0.168c9.235-7.496 16.491-15.652 22.008-24.527 3.418-5.457 4.438-11.394 3.058-17.87s-2.699-11.094-4.078-13.793c-8.875-19.789-11.574-40.538-8.216-62.366 3.418-21.768 13.373-40.898 29.624-57.269 16.371-16.371 36.52-25.366 60.328-27.105 23.867-1.679 46.055 2.219 66.504 11.754 5.397 3.418 12.054 4.797 19.909 4.078s14.392-3.778 19.909-9.175c10.195-9.535 19.19-24.047 27.045-43.477s13.133-39.039 15.831-58.768c1.379-11.574-0.48-20.629-5.517-27.105-5.157-6.417-10.434-10.734-15.951-12.773-21.109-7.496-39.099-20.629-54.091-39.339s-22.488-40.058-22.488-63.866c0-23.208 6.297-43.477 18.83-60.867 12.653-17.331 29.144-29.804 49.533-37.3 4.797-2.699 8.875-5.457 12.293-8.156 7.496-6.117 12.653-13.972 15.352-23.507zM513.919 158.821c30.644 0 59.668 5.817 86.833 17.391 27.285 11.574 50.973 27.585 71.122 48.034 20.149 20.509 35.981 44.136 47.554 71.062s17.331 55.77 17.331 86.354c0 30.703-5.757 59.488-17.331 86.354-11.574 26.926-27.405 50.493-47.554 70.582s-43.776 35.981-71.122 47.554c-27.165 11.574-56.25 17.391-86.833 17.391-30.644 0-59.488-5.817-86.414-17.391-26.866-11.574-50.433-27.465-70.462-47.554-20.089-20.089-35.981-43.657-47.554-70.582-11.574-26.866-17.391-55.71-17.391-86.354s5.817-59.428 17.391-86.354c11.574-26.866 27.465-50.553 47.554-71.062 20.089-20.449 43.657-36.4 70.522-48.034 26.926-11.574 55.71-17.391 86.354-17.391zM513.919 158.821" />
<glyph unicode="&#xe680;" glyph-name="Approve" d="M516.091 834.35c-110.884 0-201.093-89.631-201.093-199.798 0-70.743 37.908-135.951 98.217-171.694l-19.594-157.404h-163.978c-34.161 0-61.957-27.689-61.957-61.716v-129.004c0-34.033 27.796-61.727 61.957-61.727h564.7c34.171 0 61.972 27.689 61.972 61.727v129.004c0 34.033-27.802 61.716-61.972 61.716h-156.201l-19.548 157.179c60.534 35.692 98.586 100.982 98.586 171.924 0.005 110.162-90.209 199.793-201.088 199.793zM831.785 2.422h-639.57c-18.991 0-34.386-15.395-34.386-34.386s15.395-34.386 34.386-34.386v0h639.57c18.991 0 34.386 15.395 34.386 34.386s-15.395 34.386-34.386 34.386v0z" />
<glyph unicode="&#xe68f;" glyph-name="xitongcanshupeizhi" d="M906.986 285.616c-5.425 9.409-15.521 14.423-25.686 13.805h-175.546c-5.288 0-10.165-1.442-14.423-3.983-4.669-2.335-8.722-6.043-11.539-10.92l-88.048-152.469c-4.053-7.006-4.669-14.973-2.472-22.114 0.618-2.129 1.511-4.258 2.679-6.251l84.958-147.181c3.297-11.676 14.010-20.261 26.717-20.261h175.752c10.783-1.442 21.84 3.64 27.678 13.668l87.087 150.753c2.061 3.503 3.227 7.349 3.572 11.126 1.924 6.937 1.168 14.629-2.679 21.359l-88.048 152.469zM856.3 8.080h-126.783l-63.118 109.338 62.91 108.857h126.852l63.118-109.202-62.979-108.996zM678.213 488.43c3.777-10.852 14.079-18.682 26.236-18.682h177.194c0.961 0 1.924 0.068 2.885 0.137 9.135 0.413 17.926 5.356 22.801 13.873l86.537 150.066c1.924 3.297 3.022 6.799 3.503 10.302 2.335 7.212 1.716 15.316-2.335 22.39l-87.567 151.645c-5.564 9.615-16.003 14.629-26.373 13.736h-174.172c-5.425 0-10.439-1.579-14.697-4.258-4.808-2.335-8.996-6.112-11.813-11.057l-87.498-151.645c-2.335-4.053-3.503-8.379-3.709-12.775-0.413-5.356 0.755-10.852 3.64-15.866l85.369-147.868zM730.616 760.197h127.539l62.979-108.789-63.323-109.27h-127.402l-63.049 108.789 63.255 109.27zM608.159 324.833v114.558c-18.956-0.137-38.185 4.601-55.769 14.766-53.021 30.631-71.015 98.693-40.178 152.058l-99.174 57.211c-9.409-16.552-23.146-30.905-40.796-41.070-52.953-30.563-120.809-12.157-151.645 41.070l-99.242-57.28c9.546-16.345 15.11-35.371 15.042-55.699 0-61.057-49.724-110.644-111.125-110.849v-114.558c18.887 0.068 37.98-4.669 55.493-14.766 52.815-30.494 70.877-98.213 40.453-151.508l99.174-57.28c9.341 16.345 23.009 30.494 40.453 40.522 52.884 30.563 120.603 12.294 151.508-40.796l99.242 57.28c-9.478 16.276-14.903 35.232-14.903 55.425 0.068 61.194 49.931 110.781 111.468 110.918zM435.017 313.707c-37.637-65.177-121.014-87.43-186.261-49.724-65.247 37.637-87.635 121.014-50.068 186.123s120.946 87.361 186.193 49.724c65.315-37.706 87.704-121.014 50.137-186.123z" />
<glyph unicode="&#xe6af;" glyph-name="user" d="M740.112 204.723c111.219-27.527 193.536-127.832 193.536-247.396v-29.725h-843.294v29.725c0 115.027 76.39 212.391 181.2 243.816 75.268 18.198 132.474 80.244 140.317 145.251-39.568 27.295-70.108 68.248-80.588 114.030l-36.077 157.614c-27.552 120.369 50.113 217.727 173.406 217.727h83.541c123.548 0 202.801-97.819 177.586-218.485l-32.631-156.155c-10.057-48.125-42.184-90.93-83.908-118.271 6.014-61.882 57.113-117.829 126.914-138.131z" />
<glyph unicode="&#xe6b7;" glyph-name="youxiashixin" d="M97.419 191.661c98.598 0 420.117-0.058 552.16-0.058 51.299 0 55.136 28.019 55.136 56.482 0 125.133-0.074 424.154-0.074 553.608 0 36.054-34.471 33.304-49.16 20.734-104.078-104.078-476.528-472.53-578.403-574.406-22.861-25.312-12.333-56.36 20.341-56.36z" />
<glyph unicode="&#xe6bd;" glyph-name="paizhaoanniu" d="M512 888.123c-277.977 0-504.123-226.146-504.123-504.123s226.146-504.123 504.123-504.123 504.123 226.146 504.123 504.123-226.146 504.123-504.123 504.123zM512-41.354c-234.543 0-425.354 190.811-425.354 425.354s190.811 425.354 425.354 425.354 425.354-190.811 425.354-425.354-190.811-425.354-425.354-425.354zM512 777.846c-217.513 0-393.846-176.333-393.846-393.846s176.333-393.846 393.846-393.846c217.513 0 393.846 176.333 393.846 393.846s-176.333 393.846-393.846 393.846z" />
<glyph unicode="&#xe6f9;" glyph-name="tag" d="M335.168 634.016q0 30.272-21.44 51.712t-51.712 21.44-51.712-21.44-21.44-51.712 21.44-51.712 51.712-21.44 51.712 21.44 21.44 51.712zM944.896 304.864q0-30.272-21.12-51.456l-280.576-281.152q-22.272-21.12-52.032-21.12-30.272 0-51.456 21.12l-408.576 409.152q-21.696 21.12-36.864 57.728t-15.168 66.88v237.696q0 29.696 21.696 51.456t51.456 21.696h237.696q30.272 0 66.88-15.168t58.304-36.864l408.576-408q21.12-22.272 21.12-52.032z" />
<glyph unicode="&#xe700;" glyph-name="kaishi" d="M826.049 432.786c40.653-28.457 40.653-69.111 0-97.569l-585.411-386.21c-40.653-28.457-73.176-8.13-73.176 40.653v788.68c0 48.783 32.523 69.111 73.176 40.653l585.411-386.21z" />
<glyph unicode="&#xe742;" glyph-name="database" d="M512 457.143q135.429 0 253.143 24.571t185.714 72.571v-97.143q0-39.429-58.857-73.143t-160-53.429-220-19.714-220 19.714-160 53.429-58.857 73.143v97.143q68-48 185.714-72.571t253.143-24.571zM512 18.286q135.429 0 253.143 24.571t185.714 72.571v-97.143q0-39.429-58.857-73.143t-160-53.429-220-19.714-220 19.714-160 53.429-58.857 73.143v97.143q68-48 185.714-72.571t253.143-24.571zM512 237.714q135.429 0 253.143 24.571t185.714 72.571v-97.143q0-39.429-58.857-73.143t-160-53.429-220-19.714-220 19.714-160 53.429-58.857 73.143v97.143q68-48 185.714-72.571t253.143-24.571zM512 896q118.857 0 220-19.714t160-53.429 58.857-73.143v-73.143q0-39.429-58.857-73.143t-160-53.429-220-19.714-220 19.714-160 53.429-58.857 73.143v73.143q0 39.429 58.857 73.143t160 53.429 220 19.714z" />
<glyph unicode="&#xe7a0;" glyph-name="wenjianjia" d="M861.402 51.721c0-30.91-25.074-55.878-55.925-55.878h-698.703l97.849 461.131c0 30.879 24.92 55.906 55.77 55.906h642.928c30.856 0 55.829-25.027 55.829-55.906l-97.747-405.254zM218.523 554.824h628.871v54.891c0 30.879-25.076 55.906-55.878 55.906h-335.367v50.659c0 30.827-25.027 55.878-55.878 55.878h-279.543c-30.856 0-55.878-25.051-55.878-55.878v-664.559l97.747 447.176c0 30.881 25.074 55.927 55.925 55.927v0 0zM218.523 554.824" />
<glyph unicode="&#xe872;" glyph-name="xiangmuzuhe" d="M282.526 458.010l209.067-102.124v239.807l-209.067 99.734v-237.42zM530.976 593.305v-237.723l206.33 99.734v238.592l-206.33-100.561zM512.782 820.434l-203.551-97 203.639-96.999 200.816 96.999-200.903 97zM35.078 49.994l209.023-102.124v239.807l-209.023 99.734v-237.42zM283.483 185.29v-237.723l206.33 99.734v238.591l-206.33-100.604zM265.333 412.42l-203.639-97.001 203.639-96.999 200.86 96.999-200.859 97zM534.188 49.995l209.022-102.124v239.806l-209.022 99.734v-237.42zM782.637 185.291v-237.723l206.286 99.734v238.59l-206.286-100.604zM764.4 412.42l-203.551-97 203.595-96.999 200.86 96.999-200.859 97z" />
<glyph unicode="&#xe9c8;" glyph-name="export" d="M480 206.222h-480v-256h960v256h-480zM896 78.222h-128v64h128v-64zM224 590.222l256 256 256-256h-160v-320h-192v320z" />
</font>
</defs>
</svg>
